<svg width="24" height="24" viewBox="0 0 24 24" fill="none" xmlns="http://www.w3.org/2000/svg">
<mask id="mask0_3457_27320" style="mask-type:alpha" maskUnits="userSpaceOnUse" x="9" y="6" width="7" height="12">
<path d="M9.29234 6.29202C8.90285 6.68151 8.90251 7.31288 9.29157 7.70279L13.1673 11.587L9.29157 15.4713C8.90251 15.8612 8.90285 16.4925 9.29234 16.882C9.6817 17.2714 10.313 17.2714 10.7023 16.882L15.9973 11.587L10.7023 6.29202C10.313 5.90266 9.6817 5.90266 9.29234 6.29202Z" fill="#4C4F55"/>
</mask>
<g mask="url(#mask0_3457_27320)">
<path d="M9.29234 6.28747C8.90285 6.67089 8.90251 7.29243 9.29157 7.67627L13.1673 11.5L9.29157 15.3237C8.90251 15.7076 8.90285 16.3291 9.29234 16.7125C9.6817 17.0958 10.313 17.0958 10.7023 16.7125L15.9973 11.5L10.7023 6.28747C10.313 5.90418 9.6817 5.90418 9.29234 6.28747Z" fill="#495054"/>
</g>
</svg>