<svg width="24" height="24" viewBox="0 0 24 24" fill="none" xmlns="http://www.w3.org/2000/svg">
<g id="Icon End 1 large">
<path id="Vector" d="M2.44023 6.45888C2.7222 6.16506 3.10457 6 3.50327 6C3.90197 6 4.28434 6.16506 4.56631 6.45888L12.0091 14.2169L19.4518 6.45888C19.7354 6.17339 20.1152 6.01541 20.5095 6.01898C20.9037 6.02255 21.2808 6.18738 21.5596 6.47797C21.8384 6.76856 21.9965 7.16165 21.9999 7.57259C22.0034 7.98352 21.8518 8.37942 21.5779 8.67501L13.0721 17.5411C12.7902 17.8349 12.4078 18 12.0091 18C11.6104 18 11.228 17.8349 10.946 17.5411L2.44023 8.67501C2.15835 8.3811 2 7.98253 2 7.56695C2 7.15136 2.15835 6.75279 2.44023 6.45888Z" fill="#3D3C3C"/>
</g>
</svg>
