<svg width="24" height="24" viewBox="0 0 24 24" fill="none" xmlns="http://www.w3.org/2000/svg">
<mask id="mask0_3457_27321" style="mask-type:alpha" maskUnits="userSpaceOnUse" x="9" y="6" width="7" height="11">
<path d="M15.7083 16.6872C16.0939 16.3032 16.0917 15.6832 15.7036 15.3018L11.8368 11.5026L15.6731 7.67326C16.0582 7.28887 16.0554 6.66886 15.6668 6.2879C15.2784 5.90706 14.6511 5.90952 14.2657 6.29338L9.02456 11.5136L14.3072 16.6927C14.6956 17.0735 15.3229 17.0711 15.7083 16.6872Z" fill="#6D7079"/>
</mask>
<g mask="url(#mask0_3457_27321)">
<path d="M15.7077 16.7124C16.0971 16.329 16.0975 15.7075 15.7084 15.3236L11.8327 11.5L15.7083 7.67626C16.0973 7.29242 16.097 6.67089 15.7075 6.28748C15.3181 5.9042 14.6869 5.90421 14.2975 6.28751L9.00277 11.5001L14.2977 16.7124C14.6871 17.0957 15.3183 17.0957 15.7077 16.7124Z" fill="#495054"/>
</g>
</svg>