<svg width="40" height="40" viewBox="0 0 40 40" fill="none" xmlns="http://www.w3.org/2000/svg">
<g id="icon">
<path id="Vector" fill-rule="evenodd" clip-rule="evenodd" d="M28.3333 16.6675V18.5442C28.945 18.7025 29.5233 18.9441 30.0533 19.2575L31.38 17.9291L33.7383 20.2875L32.41 21.6142C32.7233 22.1442 32.965 22.7225 33.1233 23.3342H35V26.6675H33.1233C32.965 27.2792 32.7233 27.8575 32.41 28.3875L33.7383 29.7141L31.38 32.0725L30.0533 30.7441C29.5164 31.0616 28.9374 31.3018 28.3333 31.4575V33.3342H25V31.4575C24.396 31.3018 23.8169 31.0617 23.28 30.7441L21.9533 32.0725L19.595 29.7141L20.9233 28.3875C20.6058 27.8506 20.3656 27.2715 20.21 26.6675H18.3333V23.3342H20.21C20.3683 22.7225 20.61 22.1442 20.9233 21.6142L19.595 20.2875L21.9533 17.9291L23.28 19.2575C23.8169 18.94 24.396 18.6998 25 18.5442V16.6675H28.3333ZM29.01 22.6308L29.0367 22.6575C29.6267 23.2542 29.9933 24.0742 30 24.9775V25.0241C29.9956 25.6805 29.7976 26.3209 29.4307 26.8651C29.0638 27.4093 28.5444 27.8332 27.9377 28.0834C27.3309 28.3337 26.6638 28.3992 26.0199 28.2719C25.3761 28.1445 24.7841 27.8299 24.3183 27.3675L24.3017 27.3475C23.694 26.7192 23.3574 25.8775 23.3644 25.0035C23.3714 24.1295 23.7213 23.2932 24.3389 22.6747C24.9565 22.0562 25.7923 21.7051 26.6663 21.6969C27.5403 21.6887 28.3809 22.0241 29.01 22.6308ZM8.33333 13.3342C8.33367 12.4093 8.52644 11.4946 8.89937 10.6483C9.27231 9.80199 9.81726 9.04252 10.4996 8.41819C11.1819 7.79386 11.9867 7.31832 12.8627 7.02182C13.7387 6.72531 14.6669 6.61433 15.5881 6.69591C16.5094 6.7775 17.4035 7.04988 18.2138 7.49572C19.0241 7.94157 19.7328 8.55113 20.2948 9.28566C20.8567 10.0202 21.2597 10.8636 21.4781 11.7623C21.6965 12.661 21.7255 13.5953 21.5633 14.5058C19.2151 15.6515 17.3174 17.5493 16.1717 19.8975C15.2121 20.0688 14.2267 20.0276 13.2847 19.7768C12.3428 19.526 11.4674 19.0717 10.72 18.446C9.9727 17.8202 9.37168 17.0382 8.95931 16.155C8.54695 15.2718 8.33327 14.3089 8.33333 13.3342ZM15.4833 21.6675H11.6667C9.89856 21.6675 8.20286 22.3699 6.95262 23.6201C5.70238 24.8703 5 26.566 5 28.3342V30.0008C5 30.8849 5.35119 31.7327 5.97631 32.3578C6.60143 32.983 7.44928 33.3342 8.33333 33.3342H18.5017C17.3914 32.2491 16.5096 30.9527 15.9082 29.5215C15.3068 28.0903 14.998 26.5532 15 25.0008C15 23.8425 15.1683 22.7241 15.4833 21.6675Z" fill="#D29F48"/>
</g>
</svg>
