<svg width="40" height="40" viewBox="0 0 40 40" fill="none" xmlns="http://www.w3.org/2000/svg">
<g id="icon">
<path id="Vector" d="M12.5 16.5909C12.1383 16.5909 11.7915 16.7346 11.5358 16.9903C11.28 17.246 11.1364 17.5929 11.1364 17.9545C11.1364 18.3162 11.28 18.6631 11.5358 18.9188C11.7915 19.1745 12.1383 19.3182 12.5 19.3182C12.8617 19.3182 13.2085 19.1745 13.4642 18.9188C13.72 18.6631 13.8636 18.3162 13.8636 17.9545C13.8636 17.5929 13.72 17.246 13.4642 16.9903C13.2085 16.7346 12.8617 16.5909 12.5 16.5909ZM11.1364 27.5C11.1364 27.1383 11.28 26.7915 11.5358 26.5358C11.7915 26.28 12.1383 26.1364 12.5 26.1364C12.8617 26.1364 13.2085 26.28 13.4642 26.5358C13.72 26.7915 13.8636 27.1383 13.8636 27.5C13.8636 27.8617 13.72 28.2085 13.4642 28.4642C13.2085 28.72 12.8617 28.8636 12.5 28.8636C12.1383 28.8636 11.7915 28.72 11.5358 28.4642C11.28 28.2085 11.1364 27.8617 11.1364 27.5ZM5 10.1136C5 8.75742 5.53876 7.45674 6.49775 6.49775C7.45674 5.53876 8.75742 5 10.1136 5H29.8864C31.2426 5 32.5433 5.53876 33.5023 6.49775C34.4612 7.45674 35 8.75742 35 10.1136V29.8864C35 31.2426 34.4612 32.5433 33.5023 33.5023C32.5433 34.4612 31.2426 35 29.8864 35H10.1136C8.75742 35 7.45674 34.4612 6.49775 33.5023C5.53876 32.5433 5 31.2426 5 29.8864V10.1136ZM9.09091 17.9545C9.09091 18.8587 9.45008 19.7258 10.0894 20.3651C10.7287 21.0045 11.5959 21.3636 12.5 21.3636C13.4041 21.3636 14.2713 21.0045 14.9106 20.3651C15.5499 19.7258 15.9091 18.8587 15.9091 17.9545C15.9091 17.0504 15.5499 16.1833 14.9106 15.544C14.2713 14.9046 13.4041 14.5455 12.5 14.5455C11.5959 14.5455 10.7287 14.9046 10.0894 15.544C9.45008 16.1833 9.09091 17.0504 9.09091 17.9545ZM12.5 24.0909C11.5959 24.0909 10.7287 24.4501 10.0894 25.0894C9.45008 25.7287 9.09091 26.5959 9.09091 27.5C9.09091 28.4041 9.45008 29.2713 10.0894 29.9106C10.7287 30.5499 11.5959 30.9091 12.5 30.9091C13.4041 30.9091 14.2713 30.5499 14.9106 29.9106C15.5499 29.2713 15.9091 28.4041 15.9091 27.5C15.9091 26.5959 15.5499 25.7287 14.9106 25.0894C14.2713 24.4501 13.4041 24.0909 12.5 24.0909ZM18.6364 17.6136C18.6364 18.1782 19.0945 18.6364 19.6591 18.6364H29.8864C30.1576 18.6364 30.4177 18.5286 30.6095 18.3368C30.8013 18.145 30.9091 17.8849 30.9091 17.6136C30.9091 17.3424 30.8013 17.0823 30.6095 16.8905C30.4177 16.6987 30.1576 16.5909 29.8864 16.5909H19.6591C19.3878 16.5909 19.1277 16.6987 18.9359 16.8905C18.7441 17.0823 18.6364 17.3424 18.6364 17.6136ZM19.6591 26.1364C19.3878 26.1364 19.1277 26.2441 18.9359 26.4359C18.7441 26.6277 18.6364 26.8878 18.6364 27.1591C18.6364 27.4303 18.7441 27.6905 18.9359 27.8823C19.1277 28.0741 19.3878 28.1818 19.6591 28.1818H29.8864C30.1576 28.1818 30.4177 28.0741 30.6095 27.8823C30.8013 27.6905 30.9091 27.4303 30.9091 27.1591C30.9091 26.8878 30.8013 26.6277 30.6095 26.4359C30.4177 26.2441 30.1576 26.1364 29.8864 26.1364H19.6591ZM9.09091 10.1136C9.09091 10.6782 9.54909 11.1364 10.1136 11.1364H29.8864C30.1576 11.1364 30.4177 11.0286 30.6095 10.8368C30.8013 10.645 30.9091 10.3849 30.9091 10.1136C30.9091 9.84239 30.8013 9.58226 30.6095 9.39046C30.4177 9.19866 30.1576 9.09091 29.8864 9.09091H10.1136C9.84239 9.09091 9.58226 9.19866 9.39046 9.39046C9.19866 9.58226 9.09091 9.84239 9.09091 10.1136Z" fill="#D29F48"/>
</g>
</svg>
