<svg width="20" height="20" viewBox="0 0 20 20" fill="none" xmlns="http://www.w3.org/2000/svg">
<g id="ph:chart-bar-light">
<path id="Vector" d="M17.5 15.7812H16.7188V3.125C16.7188 3.00068 16.6694 2.88145 16.5815 2.79354C16.4935 2.70564 16.3743 2.65625 16.25 2.65625H11.875C11.7507 2.65625 11.6315 2.70564 11.5435 2.79354C11.4556 2.88145 11.4062 3.00068 11.4062 3.125V6.40625H7.5C7.37568 6.40625 7.25645 6.45564 7.16854 6.54354C7.08064 6.63145 7.03125 6.75068 7.03125 6.875V10.1562H3.75C3.62568 10.1562 3.50645 10.2056 3.41854 10.2935C3.33064 10.3815 3.28125 10.5007 3.28125 10.625V15.7812H2.5C2.37568 15.7812 2.25645 15.8306 2.16854 15.9185C2.08064 16.0065 2.03125 16.1257 2.03125 16.25C2.03125 16.3743 2.08064 16.4935 2.16854 16.5815C2.25645 16.6694 2.37568 16.7188 2.5 16.7188H17.5C17.6243 16.7188 17.7435 16.6694 17.8315 16.5815C17.9194 16.4935 17.9688 16.3743 17.9688 16.25C17.9688 16.1257 17.9194 16.0065 17.8315 15.9185C17.7435 15.8306 17.6243 15.7812 17.5 15.7812ZM12.3438 3.59375H15.7812V15.7812H12.3438V3.59375ZM7.96875 7.34375H11.4062V15.7812H7.96875V7.34375ZM4.21875 11.0938H7.03125V15.7812H4.21875V11.0938Z" fill="white"/>
</g>
</svg>
