<svg width="24" height="24" viewBox="0 0 24 24" fill="none" xmlns="http://www.w3.org/2000/svg">
<g id="icon">
<path id="Vector" d="M19.6629 18.0465C19.8775 18.2611 19.9981 18.5521 19.9981 18.8556C19.9981 19.1591 19.8775 19.4502 19.6629 19.6648C19.4483 19.8794 19.1572 20 18.8537 20C18.5502 20 18.2591 19.8794 18.0444 19.6648L12 13.6188L5.95365 19.6629C5.73903 19.8775 5.44794 19.9981 5.14442 19.9981C4.8409 19.9981 4.54981 19.8775 4.33519 19.6629C4.12057 19.4483 4 19.1572 4 18.8537C4 18.5502 4.12057 18.2592 4.33519 18.0446L10.3815 12.0005L4.3371 5.95448C4.12248 5.73987 4.0019 5.4488 4.0019 5.1453C4.0019 4.8418 4.12248 4.55073 4.3371 4.33612C4.55172 4.12152 4.8428 4.00095 5.14632 4.00095C5.44984 4.00095 5.74093 4.12152 5.95555 4.33612L12 10.3821L18.0464 4.33517C18.261 4.12057 18.5521 4 18.8556 4C19.1591 4 19.4502 4.12057 19.6648 4.33517C19.8794 4.54978 20 4.84085 20 5.14435C20 5.44785 19.8794 5.73892 19.6648 5.95353L13.6185 12.0005L19.6629 18.0465Z" fill="#3D3C3C"/>
</g>
</svg>
