<svg width="48" height="48" viewBox="0 0 48 48" fill="none" xmlns="http://www.w3.org/2000/svg">
<g id="icon">
<path id="Vector" d="M18.486 37.9924H42V41.9924H6V33.5064L25.8 13.7064L34.284 22.1924L18.486 37.9924ZM28.626 10.8784L32.87 6.63635C33.2451 6.26141 33.7537 6.05078 34.284 6.05078C34.8143 6.05078 35.3229 6.26141 35.698 6.63635L41.356 12.2924C41.542 12.4781 41.6895 12.6987 41.7901 12.9415C41.8908 13.1843 41.9426 13.4445 41.9426 13.7074C41.9426 13.9702 41.8908 14.2304 41.7901 14.4732C41.6895 14.716 41.542 14.9366 41.356 15.1224L37.112 19.3644L28.626 10.8784Z" fill="#3D3C3C"/>
</g>
</svg>
