<svg width="25" height="24" viewBox="0 0 25 24" fill="none" xmlns="http://www.w3.org/2000/svg">
<g id="icon">
<path id="Vector" d="M12.5 2C18.023 2 22.5 6.477 22.5 12C22.5 17.523 18.023 22 12.5 22C6.977 22 2.5 17.523 2.5 12C2.5 6.477 6.977 2 12.5 2ZM12.49 10H11.5C11.2451 10.0003 11 10.0979 10.8146 10.2728C10.6293 10.4478 10.5178 10.687 10.5028 10.9414C10.4879 11.1958 10.5707 11.4464 10.7343 11.6418C10.8979 11.8373 11.1299 11.9629 11.383 11.993L11.5 12V16.99C11.5 17.51 11.894 17.94 12.4 17.994L12.51 18H13C13.2103 18 13.4153 17.9337 13.5857 17.8105C13.7562 17.6873 13.8835 17.5135 13.9495 17.3139C14.0155 17.1142 14.0169 16.8988 13.9534 16.6982C13.8899 16.4977 13.7649 16.3223 13.596 16.197L13.5 16.134V11.01C13.5 10.49 13.106 10.06 12.6 10.006L12.49 10ZM12.5 7C12.2348 7 11.9804 7.10536 11.7929 7.29289C11.6054 7.48043 11.5 7.73478 11.5 8C11.5 8.26522 11.6054 8.51957 11.7929 8.70711C11.9804 8.89464 12.2348 9 12.5 9C12.7652 9 13.0196 8.89464 13.2071 8.70711C13.3946 8.51957 13.5 8.26522 13.5 8C13.5 7.73478 13.3946 7.48043 13.2071 7.29289C13.0196 7.10536 12.7652 7 12.5 7Z" fill="#F3F3F3"/>
</g>
</svg>
