<svg width="40" height="40" viewBox="0 0 40 40" fill="none" xmlns="http://www.w3.org/2000/svg">
<g id="icon">
<path id="Vector" fill-rule="evenodd" clip-rule="evenodd" d="M20 6.66669C18.2319 6.66669 16.5362 7.36907 15.286 8.61931C14.0357 9.86955 13.3333 11.5652 13.3333 13.3334C13.3333 15.1015 14.0357 16.7972 15.286 18.0474C16.5362 19.2976 18.2319 20 20 20C21.7681 20 23.4638 19.2976 24.714 18.0474C25.9643 16.7972 26.6667 15.1015 26.6667 13.3334C26.6667 11.5652 25.9643 9.86955 24.714 8.61931C23.4638 7.36907 21.7681 6.66669 20 6.66669ZM16.6667 21.6667C14.8986 21.6667 13.2029 22.3691 11.9526 23.6193C10.7024 24.8696 10 26.5652 10 28.3334V30C10 30.8841 10.3512 31.7319 10.9763 32.357C11.6014 32.9822 12.4493 33.3334 13.3333 33.3334H26.6667C27.5507 33.3334 28.3986 32.9822 29.0237 32.357C29.6488 31.7319 30 30.8841 30 30V28.3334C30 26.5652 29.2976 24.8696 28.0474 23.6193C26.7971 22.3691 25.1014 21.6667 23.3333 21.6667H16.6667Z" fill="#D29F48"/>
</g>
</svg>
