<svg width="40" height="40" viewBox="0 0 40 40" fill="none" xmlns="http://www.w3.org/2000/svg">
<g id="icon">
<path id="Vector" fill-rule="evenodd" clip-rule="evenodd" d="M20 6.66602C18.2319 6.66602 16.5362 7.36839 15.286 8.61864C14.0357 9.86888 13.3333 11.5646 13.3333 13.3327C13.3333 15.1008 14.0357 16.7965 15.286 18.0467C16.5362 19.297 18.2319 19.9993 20 19.9993C21.7681 19.9993 23.4638 19.297 24.714 18.0467C25.9643 16.7965 26.6667 15.1008 26.6667 13.3327C26.6667 11.5646 25.9643 9.86888 24.714 8.61864C23.4638 7.36839 21.7681 6.66602 20 6.66602ZM16.6667 21.666C14.8986 21.666 13.2029 22.3684 11.9526 23.6186C10.7024 24.8689 10 26.5646 10 28.3327V29.9993C10 30.8834 10.3512 31.7312 10.9763 32.3564C11.6014 32.9815 12.4493 33.3327 13.3333 33.3327H26.6667C27.5507 33.3327 28.3986 32.9815 29.0237 32.3564C29.6488 31.7312 30 30.8834 30 29.9993V28.3327C30 26.5646 29.2976 24.8689 28.0474 23.6186C26.7971 22.3684 25.1014 21.666 23.3333 21.666H16.6667Z" fill="#F3F3F3"/>
</g>
</svg>
