<svg width="24" height="24" viewBox="0 0 24 24" fill="none" xmlns="http://www.w3.org/2000/svg">
<g id="ri:logout-box-r-fill">
<path id="Vector" d="M5 21.8634C4.73478 21.8634 4.48043 21.758 4.29289 21.5705C4.10536 21.383 4 21.1286 4 20.8634V2.8634C4 2.59819 4.10536 2.34383 4.29289 2.1563C4.48043 1.96876 4.73478 1.8634 5 1.8634H19C19.2652 1.8634 19.5196 1.96876 19.7071 2.1563C19.8946 2.34383 20 2.59819 20 2.8634V20.8634C20 21.1286 19.8946 21.383 19.7071 21.5705C19.5196 21.758 19.2652 21.8634 19 21.8634H5ZM15 15.8634L20 11.8634L15 7.8634V10.8634H9V12.8634H15V15.8634Z" fill="#F3F3F3"/>
</g>
</svg>
