<svg width="24" height="25" viewBox="0 0 24 25" fill="none" xmlns="http://www.w3.org/2000/svg">
<g id="material-symbols:search">
<path id="Vector" d="M19.6 21.5L13.3 15.2C12.8 15.6 12.225 15.9167 11.575 16.15C10.925 16.3833 10.2333 16.5 9.5 16.5C7.68333 16.5 6.146 15.8707 4.888 14.612C3.63 13.3533 3.00067 11.816 3 10C3 8.18333 3.62933 6.646 4.888 5.388C6.14667 4.13 7.684 3.50067 9.5 3.5C11.3167 3.5 12.8543 4.12933 14.113 5.388C15.3717 6.64667 16.0007 8.184 16 10C16 10.7333 15.8833 11.425 15.65 12.075C15.4167 12.725 15.1 13.3 14.7 13.8L21 20.1L19.6 21.5ZM9.5 14.5C10.75 14.5 11.8127 14.0627 12.688 13.188C13.5633 12.3133 14.0007 11.2507 14 10C14 8.75 13.5627 7.68767 12.688 6.813C11.8133 5.93833 10.7507 5.50067 9.5 5.5C8.25 5.5 7.18767 5.93767 6.313 6.813C5.43833 7.68833 5.00067 8.75067 5 10C5 11.25 5.43767 12.3127 6.313 13.188C7.18833 14.0633 8.25067 14.5007 9.5 14.5Z" fill="#F3F3F3"/>
</g>
</svg>
