<svg width="40" height="40" viewBox="0 0 40 40" fill="none" xmlns="http://www.w3.org/2000/svg">
<g id="icon">
<path id="Vector" d="M20.0003 3.3337V14.167C20.0003 14.8301 20.2637 15.466 20.7326 15.9348C21.2014 16.4036 21.8373 16.667 22.5003 16.667H33.3337V33.3337C33.3337 34.2178 32.9825 35.0656 32.3573 35.6907C31.7322 36.3158 30.8844 36.667 30.0003 36.667H18.1137C18.2553 36.2504 18.3337 35.797 18.3337 35.3187V28.3354C19.5372 26.7306 20.1216 24.7455 19.9794 22.7446C19.8372 20.7437 18.978 18.8612 17.5595 17.4428C16.1411 16.0244 14.2586 15.1652 12.2577 15.023C10.2568 14.8808 8.27176 15.4651 6.66699 16.6687V6.66536C6.66699 5.78131 7.01818 4.93346 7.6433 4.30834C8.26842 3.68322 9.11627 3.33203 10.0003 3.33203L20.0003 3.3337ZM11.667 18.3337C12.6796 18.3337 13.6683 18.6412 14.5023 19.2154C15.3364 19.7897 15.9764 20.6036 16.3377 21.5496C16.699 22.4955 16.7646 23.5289 16.5258 24.5129C16.287 25.4969 15.755 26.3853 15.0003 27.0604V35.3187C15.0003 35.4608 14.964 35.6005 14.8947 35.7247C14.8255 35.8488 14.7257 35.9531 14.6048 36.0277C14.4839 36.1024 14.3459 36.1449 14.2039 36.1512C14.0619 36.1575 13.9207 36.1274 13.7937 36.0637L11.667 35.0004L9.54033 36.0637C9.41328 36.1274 9.27206 36.1575 9.13009 36.1512C8.98812 36.1449 8.85012 36.1024 8.72921 36.0277C8.60829 35.9531 8.50847 35.8488 8.43924 35.7247C8.37001 35.6005 8.33366 35.4608 8.33366 35.3187V27.0604C7.57893 26.3853 7.04697 25.4969 6.80816 24.5129C6.56935 23.5289 6.63494 22.4955 6.99626 21.5496C7.35759 20.6036 7.99761 19.7897 8.83163 19.2154C9.66566 18.6412 10.6544 18.3337 11.667 18.3337ZM23.3337 3.40536C23.9651 3.53929 24.5441 3.85368 25.0003 4.31036L32.357 11.667C32.8137 12.1232 33.1281 12.7022 33.262 13.3337H23.3337V3.40536Z" fill="#D29F48"/>
</g>
</svg>
