<svg width="40" height="40" viewBox="0 0 40 40" fill="none" xmlns="http://www.w3.org/2000/svg">
<g id="icon">
<path id="Vector" d="M19.9993 3.33339V14.1667C19.9993 14.8298 20.2627 15.4657 20.7316 15.9345C21.2004 16.4033 21.8363 16.6667 22.4993 16.6667H33.3327V33.3334C33.3327 34.2174 32.9815 35.0653 32.3564 35.6904C31.7312 36.3155 30.8834 36.6667 29.9993 36.6667H18.1127C18.2543 36.2501 18.3327 35.7967 18.3327 35.3184V28.3351C19.5363 26.7303 20.1206 24.7452 19.9784 22.7443C19.8362 20.7434 18.977 18.8609 17.5586 17.4425C16.1401 16.0241 14.2577 15.1649 12.2568 15.0227C10.2558 14.8805 8.27078 15.4648 6.66602 16.6684V6.66506C6.66602 5.781 7.0172 4.93316 7.64233 4.30804C8.26745 3.68292 9.11529 3.33173 9.99935 3.33173L19.9993 3.33339ZM11.666 18.3334C12.6786 18.3334 13.6673 18.6409 14.5014 19.2151C15.3354 19.7894 15.9754 20.6033 16.3367 21.5493C16.6981 22.4952 16.7637 23.5286 16.5248 24.5126C16.286 25.4966 15.7541 26.385 14.9993 27.0601V35.3184C14.9993 35.4605 14.963 35.6002 14.8938 35.7243C14.8245 35.8484 14.7247 35.9528 14.6038 36.0274C14.4829 36.1021 14.3449 36.1446 14.2029 36.1509C14.0609 36.1572 13.9197 36.1271 13.7927 36.0634L11.666 35.0001L9.53935 36.0634C9.4123 36.1271 9.27108 36.1572 9.12911 36.1509C8.98715 36.1446 8.84915 36.1021 8.72823 36.0274C8.60731 35.9528 8.50749 35.8484 8.43826 35.7243C8.36903 35.6002 8.33269 35.4605 8.33268 35.3184V27.0601C7.57796 26.385 7.046 25.4966 6.80718 24.5126C6.56837 23.5286 6.63397 22.4952 6.99529 21.5493C7.35661 20.6033 7.99663 19.7894 8.83066 19.2151C9.66469 18.6409 10.6534 18.3334 11.666 18.3334ZM23.3327 3.40506C23.9641 3.53899 24.5431 3.85338 24.9993 4.31006L32.356 11.6667C32.8127 12.1229 33.1271 12.7019 33.261 13.3334H23.3327V3.40506Z" fill="#F3F3F3"/>
</g>
</svg>
