<svg width="40" height="40" viewBox="0 0 40 40" fill="none" xmlns="http://www.w3.org/2000/svg">
<g id="icon">
<path id="Vector" d="M24.45 27.3889H31.05V20.5H28.575V24.8056H24.45V27.3889ZM7.95 17.0556H10.425V12.75H14.55V10.1667H7.95V17.0556ZM12.9 36V32.5556H6.3C5.3925 32.5556 4.6159 32.2186 3.9702 31.5446C3.3245 30.8706 3.0011 30.0595 3 29.1111V8.44444C3 7.49722 3.3234 6.68663 3.9702 6.01267C4.617 5.3387 5.3936 5.00115 6.3 5H32.7C33.6075 5 34.3846 5.33756 35.0314 6.01267C35.6782 6.68778 36.0011 7.49837 36 8.44444V29.1111C36 30.0583 35.6771 30.8695 35.0314 31.5446C34.3857 32.2197 33.6086 32.5567 32.7 32.5556H26.1V36H12.9Z" fill="#D29F48"/>
</g>
</svg>
