<svg width="32" height="32" viewBox="0 0 32 32" fill="none" xmlns="http://www.w3.org/2000/svg">
<path id="Vector" d="M24.0003 2.14385C26.4136 3.53724 28.4211 5.53674 29.8241 7.94441C31.2271 10.3521 31.977 13.0844 31.9995 15.871C32.022 18.6575 31.3163 21.4016 29.9524 23.8316C28.5885 26.2617 26.6135 28.2933 24.2231 29.7255C21.8327 31.1577 19.1096 31.9407 16.3236 31.9971C13.5375 32.0535 10.785 31.3813 8.33859 30.047C5.89217 28.7127 3.83664 26.7626 2.3755 24.3898C0.914351 22.0169 0.0982561 19.3036 0.00800028 16.5184L0 16L0.00800028 15.4816C0.0976063 12.7184 0.901687 10.0255 2.34185 7.66551C3.78202 5.30553 5.80912 3.35899 8.22553 2.01566C10.6419 0.672337 13.3652 -0.0219375 16.1298 0.0005284C18.8944 0.0229943 21.606 0.761434 24.0003 2.14385ZM13.6178 11.424C13.2825 11.2244 12.8859 11.1542 12.5026 11.2266C12.1192 11.2989 11.7755 11.5089 11.5361 11.8169C11.2966 12.1249 11.178 12.5098 11.2025 12.8992C11.2269 13.2886 11.3928 13.6556 11.6689 13.9312L13.7362 16L11.6689 18.0688L11.5361 18.2193C11.2875 18.5408 11.1705 18.945 11.2091 19.3497C11.2477 19.7544 11.4388 20.1292 11.7437 20.3981C12.0486 20.6669 12.4444 20.8097 12.8507 20.7972C13.2571 20.7848 13.6434 20.6182 13.9314 20.3313L16.0002 18.2641L18.069 20.3313L18.2194 20.4641C18.541 20.7127 18.9452 20.8297 19.3499 20.7911C19.7546 20.7526 20.1294 20.5614 20.3983 20.2565C20.6671 19.9516 20.8098 19.5558 20.7974 19.1495C20.785 18.7432 20.6184 18.3568 20.3314 18.0688L18.2642 16L20.3314 13.9312L20.4643 13.7808C20.7129 13.4592 20.8298 13.055 20.7913 12.6503C20.7527 12.2457 20.5616 11.8708 20.2567 11.602C19.9518 11.3331 19.556 11.1904 19.1497 11.2028C18.7433 11.2152 18.357 11.3818 18.069 11.6688L16.0002 13.736L13.9314 11.6688L13.781 11.536L13.6178 11.424Z" fill="#D64F4F"/>
</svg>
