<svg width="24" height="24" viewBox="0 0 24 24" fill="none" xmlns="http://www.w3.org/2000/svg">
<g id="Group">
<path id="Vector" fill-rule="evenodd" clip-rule="evenodd" d="M11 2C11.5523 2 12 2.44772 12 3V8.5C12 8.89782 12.158 9.27936 12.4393 9.56066C12.7206 9.84196 13.1022 10 13.5 10H19C19.5523 10 20 10.4477 20 11V20C20 20.5304 19.7893 21.0391 19.4142 21.4142C19.0391 21.7893 18.5304 22 18 22H6C5.46957 22 4.96086 21.7893 4.58579 21.4142C4.21071 21.0391 4 20.5304 4 20V4C4 3.46957 4.21071 2.96086 4.58579 2.58579C4.96086 2.21071 5.46957 2 6 2H11ZM13.591 13.657L11.823 15.425C11.4325 15.8155 10.7995 15.8155 10.409 15.425C10.2204 15.2428 9.9678 15.142 9.7056 15.1443C9.4434 15.1466 9.19259 15.2518 9.00718 15.4372C8.82177 15.6226 8.7166 15.8734 8.71433 16.1356C8.71205 16.3978 8.81284 16.6504 8.995 16.839L10.338 18.183C10.4402 18.2852 10.5614 18.3663 10.6949 18.4216C10.8284 18.4769 10.9715 18.5054 11.116 18.5054C11.2605 18.5054 11.4036 18.4769 11.5371 18.4216C11.6706 18.3663 11.7918 18.2852 11.894 18.183L15.005 15.071C15.1005 14.9788 15.1767 14.8684 15.2291 14.7464C15.2815 14.6244 15.3091 14.4932 15.3103 14.3604C15.3114 14.2276 15.2861 14.0959 15.2358 13.973C15.1855 13.8502 15.1113 13.7385 15.0174 13.6446C14.9235 13.5507 14.8119 13.4765 14.689 13.4262C14.5661 13.3759 14.4344 13.3506 14.3016 13.3517C14.1688 13.3529 14.0376 13.3805 13.9156 13.4329C13.7936 13.4853 13.6832 13.5615 13.591 13.657ZM14 3.19683C14 2.60251 14.58 2.16553 15 2.586L19.414 7C19.8345 7.42003 19.3975 8 18.8032 8H15C14.4477 8 14 7.55228 14 7V3.19683Z" fill="#F3F3F3"/>
</g>
</svg>
